<?xml version="1.0" encoding="UTF-8" standalone="no"?>
<svg
   xmlns:dc="http://purl.org/dc/elements/1.1/"
   xmlns:cc="http://creativecommons.org/ns#"
   xmlns:rdf="http://www.w3.org/1999/02/22-rdf-syntax-ns#"
   xmlns:svg="http://www.w3.org/2000/svg"
   xmlns="http://www.w3.org/2000/svg"
   xmlns:sodipodi="http://sodipodi.sourceforge.net/DTD/sodipodi-0.dtd"
   xmlns:inkscape="http://www.inkscape.org/namespaces/inkscape"
   version="1.1"
   id="Layer_1"
   x="0px"
   y="0px"
   width="149.167px"
   height="172.243px"
   viewBox="0 0 149.167 172.243"
   enable-background="new 0 0 149.167 172.243"
   xml:space="preserve"
   sodipodi:docname="code-logo.svg"
   inkscape:version="0.92.3 (2405546, 2018-03-11)"><metadata
   id="metadata1171"><rdf:RDF><cc:Work
       rdf:about=""><dc:format>image/svg+xml</dc:format><dc:type
         rdf:resource="http://purl.org/dc/dcmitype/StillImage" /><dc:title></dc:title></cc:Work></rdf:RDF></metadata><defs
   id="defs1169" /><sodipodi:namedview
   pagecolor="#ffffff"
   bordercolor="#666666"
   borderopacity="1"
   objecttolerance="10"
   gridtolerance="10"
   guidetolerance="10"
   inkscape:pageopacity="0"
   inkscape:pageshadow="2"
   inkscape:window-width="2444"
   inkscape:window-height="1404"
   id="namedview1167"
   showgrid="false"
   inkscape:zoom="1.7896228"
   inkscape:cx="74.583504"
   inkscape:cy="86.121498"
   inkscape:window-x="116"
   inkscape:window-y="36"
   inkscape:window-maximized="1"
   inkscape:current-layer="Layer_1" />
<polygon
   fill="#585858"
   points="149.167,129.183 74.583,172.243 0,129.183 0,43.061 74.583,0 149.167,43.061 "
   id="polygon1162" />

<path
   inkscape:connector-curvature="0"
   style="fill:#ffffff;stroke-width:0.15674244"
   d="m 68.180371,127.32369 -9.561288,-2.77434 c -1.003146,-0.28213 -1.567424,-1.33231 -1.285285,-2.33545 L 78.729139,48.513584 c 0.282139,-1.003159 1.332319,-1.567424 2.335465,-1.285285 l 9.561287,2.774333 c 1.00316,0.282139 1.567425,1.332319 1.285286,2.335465 L 70.515835,126.0384 c -0.297804,1.00315 -1.332306,1.58309 -2.335464,1.28529 z m -17.868633,-17.58651 6.818298,-7.27285 c 0.721006,-0.76804 0.673986,-1.99062 -0.125449,-2.695964 L 42.803726,87.275991 57.004587,74.783617 c 0.799384,-0.705341 0.862083,-1.927927 0.125449,-2.695968 L 50.311738,64.814793 C 49.606396,64.06243 48.415153,64.015409 47.647112,64.736403 L 25.060528,85.896626 c -0.799383,0.736698 -0.799383,2.006305 0,2.743002 l 22.586584,21.175902 c 0.768041,0.72102 1.959284,0.68967 2.664626,-0.0784 z m 51.286122,0.0941 22.58658,-21.175918 c 0.7994,-0.736685 0.7994,-2.006304 0,-2.742989 L 101.59786,64.720814 c -0.75236,-0.705342 -1.943609,-0.673986 -2.664626,0.07839 l -6.818283,7.272843 c -0.721018,0.76804 -0.673998,1.990627 0.125322,2.695969 L 106.44115,87.276068 92.240273,99.768436 c -0.799383,0.705354 -0.862082,1.927934 -0.125322,2.695974 l 6.818283,7.27285 c 0.705341,0.76804 1.896586,0.7994 2.664626,0.0941 z"
   class=""
   id="path1202" /></svg>